<svg xmlns="http://www.w3.org/2000/svg" viewBox="0 0 408.21 102.61"><defs><style>.cls-1{fill:#f3f3f3;}.cls-2{fill:#0ab950;}</style></defs><g id="Layer_2" data-name="Layer 2"><g id="Layer_1-2" data-name="Layer 1"><path class="cls-1" d="M100.61,29.54a7.07,7.07,0,0,1-7-7.07,7,7,0,1,1,7,7.07Zm5.77,57.8H94.75V38.39h11.63Z"></path><path class="cls-1" d="M156.42,87.34H144.49V60c0-6.17-1.5-10.85-8.66-10.85a8,8,0,0,0-8.06,8.06V87.34H115.93V38.39h9.75l.4,3c2.49-2.58,6.77-4,10.25-4,14.42,0,20.09,8.86,20.09,22.39Z"></path><path class="cls-1" d="M203.58,87.34H191.64V60c0-6.17-1.49-10.85-8.66-10.85a8,8,0,0,0-8,8.06V87.34H163.09V38.39h9.75l.4,3c2.48-2.58,6.76-4,10.24-4,14.43,0,20.1,8.86,20.1,22.39Z"></path><path class="cls-1" d="M254.12,38.39l-18.81,49h-9.85l-18.6-48.95h12.73l10.55,32.13,11.14-32.13Z"></path><path class="cls-1" d="M275.8,88.33c-15.72,0-21.89-10.84-21.89-25.37s6.17-25.37,21.89-25.37S297.69,48.44,297.69,63,291.52,88.33,275.8,88.33Zm0-39.3C267.25,49,266,56.1,266,63s1.3,13.83,9.85,13.83,9.85-6.86,9.85-13.83S284.26,49,275.8,49Z"></path><path class="cls-1" d="M321.36,88.33c-9.84,0-17.9-3.28-20.19-13.33l10.35-2.69c1.29,3.59,4.27,5.38,9.64,5.38,2.79,0,7.67-.8,7.67-4.58,0-8.46-27.06-3.88-27.06-21,0-10.15,8.45-14.63,17.7-14.63,9,0,13.93,2.29,18.61,9.55L329,52.12a10.45,10.45,0,0,0-8.45-4.28c-2.49,0-6.87.7-6.87,4.28,0,7.36,26.86,2.68,26.86,20.49C340.56,83.06,330.72,88.33,321.36,88.33Z"></path><path class="cls-1" d="M365.33,88.33c-15.71,0-21.88-10.84-21.88-25.37s6.17-25.37,21.88-25.37S387.22,48.44,387.22,63,381.05,88.33,365.33,88.33Zm0-39.3c-8.55,0-9.85,7.07-9.85,13.93s1.3,13.83,9.85,13.83,9.85-6.86,9.85-13.83S373.79,49,365.33,49Z"></path><path class="cls-1" d="M408.21,87.34c-9.65-.1-15.12-3.19-15.12-13.53V15.51h11.24v58.1c0,2.48,1.09,3.58,3.88,3.68Z"></path><path class="cls-2" d="M28,26.79A40.66,40.66,0,0,0,59.64,59.35c.2,0,.4.09.61.12l.55.11h.08A14.12,14.12,0,1,1,43.77,76.35l-.09-.53c0-.17-.07-.34-.11-.5A40.63,40.63,0,0,0,12,43.26l-.18,0-.36-.07a2.2,2.2,0,0,0-.37-.06,14.12,14.12,0,1,1,17-16.3Z"></path><path class="cls-2" d="M14.12,59.2A14.12,14.12,0,0,1,28.24,73.32c0,.06,0,.12,0,.18h0a1.21,1.21,0,0,0,0,.19A14.12,14.12,0,0,0,37.68,87a4.07,4.07,0,0,1,.5.13l.54.19A7.91,7.91,0,1,1,28.63,98a7,7,0,0,1-.31-.8,7.27,7.27,0,0,1-.22-.8A14.13,14.13,0,0,0,15,87.44h-.42v0h0l-.42,0a14.12,14.12,0,0,1,0-28.24Z"></path><path class="cls-2" d="M57.55,43.42A14.12,14.12,0,0,1,43.43,29.3c0-.06,0-.13,0-.19h0a1.09,1.09,0,0,0,0-.18A14.09,14.09,0,0,0,34,15.6a4.1,4.1,0,0,1-.5-.14c-.18-.06-.36-.11-.54-.19A7.91,7.91,0,1,1,43,4.65a6.86,6.86,0,0,1,.32.79q.12.39.21.81a14.13,14.13,0,0,0,13.14,8.93h.42v0l.42,0a14.12,14.12,0,1,1,0,28.24Z"></path></g></g></svg>