<svg xmlns="http://www.w3.org/2000/svg" width="24" height="24" viewBox="0 0 24 24" fill="none"><path d="M3.69607 10.8001L3.63043 11.257H4.092H5C5.15913 11.257 5.31174 11.3202 5.42426 11.4327C5.53679 11.5453 5.6 11.6979 5.6 11.857V17C5.6 17.1591 5.53679 17.3117 5.42426 17.4243C5.31174 17.5368 5.15913 17.6 5 17.6H4C3.08947 17.6 2.4 16.9187 2.4 16.143V12C2.4 6.70691 6.70691 2.4 12 2.4C17.2931 2.4 21.6 6.70691 21.6 12V16.143C21.6 16.9187 20.9105 17.6 20 17.6H19.6V18C19.6 19.9851 17.9851 21.6 16 21.6H10.4V19.4H13.6V20V20.4H14H16C17.3239 20.4 18.4 19.3239 18.4 18V11.857C18.4 11.6979 18.4632 11.5453 18.5757 11.4327C18.6883 11.3202 18.8409 11.257 19 11.257H19.908H20.3696L20.3039 10.8001C19.7202 6.73693 16.2247 3.6 12 3.6C7.77532 3.6 4.27982 6.73693 3.69607 10.8001Z" stroke="#050EE0" stroke-width="0.8"></path><circle cx="9.42855" cy="10.5715" r="0.857143" fill="#050EE0"></circle><circle cx="14.5714" cy="10.5715" r="0.857143" fill="#050EE0"></circle><path d="M9.42859 14.2856C10 15.7142 14 15.7142 14.5714 14.2856" stroke="#050EE0"></path></svg>