<svg xmlns="http://www.w3.org/2000/svg" width="24" height="24" viewBox="0 0 24 24" fill="none"><path d="M7.97813 21.5H7.47813V21V16.613C5.06448 15.3759 3.47813 12.8821 3.47813 10C3.47813 5.82386 6.80198 2.5 10.9781 2.5C15.0009 2.5 18.1791 5.63456 18.4674 9.51748L20.2591 11.875C20.5694 12.2104 20.5445 12.6456 20.3809 12.9495C20.2198 13.2487 19.8891 13.5 19.4781 13.5H18.4781V16C18.4781 17.3761 17.3543 18.5 15.9781 18.5H15.4781V21V21.5H14.9781H7.97813Z" stroke="#050EE0"></path><g clip-path="url(#clip0_712_731)"><path d="M14.1353 8.02859L11.1353 6.69526C11.0926 6.6763 11.0465 6.6665 10.9998 6.6665C10.9531 6.6665 10.907 6.6763 10.8643 6.69526L7.86429 8.02859C7.85763 8.03159 7.85296 8.03659 7.84629 8.04026C7.83696 8.04492 7.82696 8.04792 7.81829 8.05359C7.81096 8.05859 7.80529 8.06492 7.79829 8.07026C7.77393 8.08836 7.75256 8.11018 7.73496 8.13492C7.72829 8.14426 7.72129 8.15259 7.71529 8.16192C7.70537 8.17954 7.6969 8.19793 7.68996 8.21692C7.68696 8.22592 7.68229 8.23426 7.67963 8.24326C7.67125 8.27253 7.66688 8.30281 7.66663 8.33326V11.6666C7.66663 11.7986 7.74396 11.9176 7.86463 11.9713L10.8646 13.3046C10.908 13.3239 10.954 13.3333 11 13.3333C11.0464 13.3321 11.092 13.3212 11.134 13.3013L11.1353 13.3046L14.1353 11.9713C14.1943 11.9451 14.2444 11.9024 14.2795 11.8483C14.3147 11.7942 14.3333 11.7311 14.3333 11.6666V8.33326C14.3333 8.26875 14.3147 8.20562 14.2795 8.15154C14.2444 8.09745 14.1943 8.05474 14.1353 8.02859V8.02859ZM11 7.36492L13.1793 8.33326L11 9.30159L10.564 9.10792L8.82096 8.33326L11 7.36492ZM8.33329 11.4503V8.84626L10.6666 9.88326V12.4869L8.33329 11.4503ZM11.3333 12.4869V9.88326L13.6666 8.84626V11.4503L11.3333 12.4869Z" fill="#050EE0"></path></g><defs><clipPath id="clip0_712_731"><rect width="8" height="8" fill="white" transform="translate(7 6)"></rect></clipPath></defs></svg>