<svg xmlns="http://www.w3.org/2000/svg" width="25" height="24" viewBox="0 0 25 24" fill="none"><path d="M14.8462 6.46161L10.6055 4.69485C10.4874 4.64236 10.3596 4.61523 10.2303 4.61523C10.101 4.61523 9.97321 4.64236 9.85508 4.69485L1.54738 8.38716C1.52892 8.39547 1.516 8.40932 1.49754 8.41947C1.47169 8.43239 1.444 8.4407 1.42 8.45639C1.39969 8.47024 1.384 8.48778 1.36462 8.50255C1.29714 8.55269 1.23796 8.61312 1.18923 8.68162C1.17077 8.70747 1.15138 8.73055 1.13477 8.75639C1.1073 8.80518 1.08383 8.85611 1.06462 8.9087C1.05631 8.93362 1.04338 8.9567 1.036 8.98162C1.01282 9.0627 1.00071 9.14653 1 9.23085V18.4616C1 18.8272 1.21415 19.1567 1.54831 19.3053L9.856 22.9976C9.976 23.0512 10.1034 23.077 10.2308 23.077C10.3593 23.0737 10.4894 23.0528 10.6055 22.9976L18.9132 19.3053C19.0765 19.2329 19.2153 19.1146 19.3126 18.9648C19.4099 18.8151 19.4617 18.6402 19.4615 18.4616V9.23085M6.24677 11.0539L1.42 8.9087M10.2308 23.3641V16.1539" stroke="#050EE0"></path><circle cx="10.2308" cy="12" r="2.34615" stroke="#050EE0"></circle><path d="M16.8257 9.39807L15.2518 9.7482L15.6054 8.15837L15.6056 8.15763C15.6299 8.04739 15.6853 7.94644 15.7653 7.86674L15.7657 7.86627L22.2531 1.37941C22.4354 1.20561 22.6783 1.10972 22.9303 1.11222C23.1835 1.11474 23.4256 1.2164 23.6047 1.39539C23.7838 1.57438 23.8855 1.81643 23.8881 2.06957C23.8907 2.32148 23.7949 2.56441 23.6212 2.74675L17.145 9.22248L17.1448 9.22267C17.0573 9.31026 16.9467 9.3711 16.8258 9.39805C16.8258 9.39805 16.8257 9.39806 16.8257 9.39807Z" stroke="#050EE0" stroke-width="0.8"></path></svg>